<svg width="24" height="24" viewBox="0 0 24 24" fill="none" xmlns="http://www.w3.org/2000/svg">
<path d="M21.375 2.25H2.625C2.32663 2.25 2.04048 2.36853 1.8295 2.5795C1.61853 2.79048 1.5 3.07663 1.5 3.375V16.875C1.5 17.1734 1.61853 17.4595 1.8295 17.6705C2.04048 17.8815 2.32663 18 2.625 18H6V21.75L11.5191 18H21.375C21.6734 18 21.9595 17.8815 22.1705 17.6705C22.3815 17.4595 22.5 17.1734 22.5 16.875V3.375C22.5 3.07663 22.3815 2.79048 22.1705 2.5795C21.9595 2.36853 21.6734 2.25 21.375 2.25ZM7.5 11.625C7.20333 11.625 6.91332 11.537 6.66665 11.3722C6.41997 11.2074 6.22771 10.9731 6.11418 10.699C6.00065 10.4249 5.97094 10.1233 6.02882 9.83236C6.0867 9.54139 6.22956 9.27412 6.43934 9.06434C6.64912 8.85456 6.91639 8.7117 7.20736 8.65382C7.49834 8.59594 7.79994 8.62565 8.07403 8.73918C8.34811 8.85271 8.58238 9.04497 8.7472 9.29165C8.91203 9.53832 9 9.82833 9 10.125C9 10.5228 8.84196 10.9044 8.56066 11.1857C8.27936 11.467 7.89782 11.625 7.5 11.625ZM12 11.625C11.7033 11.625 11.4133 11.537 11.1666 11.3722C10.92 11.2074 10.7277 10.9731 10.6142 10.699C10.5006 10.4249 10.4709 10.1233 10.5288 9.83236C10.5867 9.54139 10.7296 9.27412 10.9393 9.06434C11.1491 8.85456 11.4164 8.7117 11.7074 8.65382C11.9983 8.59594 12.2999 8.62565 12.574 8.73918C12.8481 8.85271 13.0824 9.04497 13.2472 9.29165C13.412 9.53832 13.5 9.82833 13.5 10.125C13.5 10.5228 13.342 10.9044 13.0607 11.1857C12.7794 11.467 12.3978 11.625 12 11.625ZM16.5 11.625C16.2033 11.625 15.9133 11.537 15.6666 11.3722C15.42 11.2074 15.2277 10.9731 15.1142 10.699C15.0006 10.4249 14.9709 10.1233 15.0288 9.83236C15.0867 9.54139 15.2296 9.27412 15.4393 9.06434C15.6491 8.85456 15.9164 8.7117 16.2074 8.65382C16.4983 8.59594 16.7999 8.62565 17.074 8.73918C17.3481 8.85271 17.5824 9.04497 17.7472 9.29165C17.912 9.53832 18 9.82833 18 10.125C18 10.5228 17.842 10.9044 17.5607 11.1857C17.2794 11.467 16.8978 11.625 16.5 11.625Z" fill="#262633"/>
</svg>
